<svg width="60" height="60" viewBox="0 0 60 60" fill="none" xmlns="http://www.w3.org/2000/svg">
<path d="M22.3806 20.7695H45.8364C46.3218 20.7695 46.7153 20.376 46.7153 19.8906C46.7153 19.4052 46.3218 19.0117 45.8364 19.0117H22.3806C21.8952 19.0117 21.5017 19.4052 21.5017 19.8906C21.5017 20.376 21.8952 20.7695 22.3806 20.7695Z" fill="#2B58BC"/>
<path d="M22.3806 27.2837H45.8364C46.3218 27.2837 46.7153 26.8902 46.7153 26.4048C46.7153 25.9194 46.3218 25.5259 45.8364 25.5259H22.3806C21.8952 25.5259 21.5017 25.9194 21.5017 26.4048C21.5017 26.8902 21.8952 27.2837 22.3806 27.2837Z" fill="#2B58BC"/>
<path d="M22.3806 33.7979H45.8364C46.3218 33.7979 46.7153 33.4043 46.7153 32.9189C46.7153 32.4336 46.3218 32.04 45.8364 32.04H22.3806C21.8952 32.04 21.5017 32.4336 21.5017 32.9189C21.5017 33.4043 21.8952 33.7979 22.3806 33.7979Z" fill="#2B58BC"/>
<path d="M54.457 11.2526C54.4494 11.0323 54.3574 10.8169 54.2011 10.6607L43.7979 0.257461C43.6352 0.0948047 43.4062 0 43.1763 0H17.2057C15.305 0 13.7589 1.54629 13.7589 3.44695V4.10883H13.097C11.3197 4.10883 9.85264 5.46094 9.6696 7.19039H8.98815C7.08749 7.19039 5.5412 8.73668 5.5412 10.6373V40.1816C5.5412 40.667 5.93471 41.0605 6.4201 41.0605C6.9055 41.0605 7.29901 40.667 7.29901 40.1816V10.6372C7.29901 9.70582 8.05675 8.94809 8.98815 8.94809H9.65003V53.4715C9.65003 55.3722 11.1963 56.9184 13.097 56.9184H35.4557C35.941 56.9184 36.3346 56.5249 36.3346 56.0395C36.3346 55.5541 35.941 55.1606 35.4557 55.1606H13.097C12.1656 55.1606 11.4078 54.4029 11.4078 53.4715V7.55566C11.4078 6.62426 12.1656 5.86652 13.097 5.86652H13.7589V10.6541C13.7589 11.1395 14.1524 11.533 14.6378 11.533C15.1232 11.533 15.5167 11.1395 15.5167 10.6541V3.44695C15.5167 2.51555 16.2744 1.75781 17.2057 1.75781H42.2974V8.71453C42.2974 10.615 43.8435 12.161 45.7439 12.161H52.7006V49.3627C52.7006 50.2941 51.9429 51.0518 51.0115 51.0518H17.2057C16.2743 51.0518 15.5167 50.2941 15.5167 49.3627V14.4845C15.5167 13.9991 15.1232 13.6056 14.6378 13.6056C14.1524 13.6056 13.7589 13.9991 13.7589 14.4845V49.3627C13.7589 51.2633 15.3051 52.8096 17.2057 52.8096H48.5919V53.4715C48.5919 54.4029 47.8342 55.1606 46.9028 55.1606H39.2859C38.8005 55.1606 38.407 55.5541 38.407 56.0395C38.407 56.5249 38.8005 56.9184 39.2859 56.9184H44.4422C44.2746 57.6746 43.5998 58.2422 42.7939 58.2422H8.98815C8.05675 58.2422 7.29901 57.4845 7.29901 56.553V44.0119C7.29901 43.5265 6.9055 43.133 6.4201 43.133C5.93471 43.133 5.5412 43.5265 5.5412 44.0119V56.553C5.5412 58.4537 7.08749 60 8.98815 60H42.794C44.5713 60 46.0384 58.6479 46.2214 56.9184H46.9029C48.8035 56.9184 50.3498 55.3722 50.3498 53.4715V52.8096H51.0117C52.9124 52.8096 54.4587 51.2633 54.4587 49.3627V11.2821C54.4585 11.2723 54.4574 11.2624 54.457 11.2526ZM45.744 10.4032C44.8128 10.4032 44.0553 9.6457 44.0553 8.71453V3.0007L51.4578 10.4032H45.744Z" fill="#2B58BC"/>
</svg>
