<svg width="60" height="60" viewBox="0 0 60 60" fill="none" xmlns="http://www.w3.org/2000/svg">
<g clip-path="url(#clip0_798_6673)">
<path d="M20.8296 44.6147C20.7138 44.8252 20.5343 44.8884 20.3659 44.8884C20.1974 44.8884 20.029 44.8252 19.9131 44.6147L18.7014 42.3391V46.9529C18.7014 47.2377 18.354 47.3851 18.0171 47.3851C17.6692 47.3851 17.3323 47.2377 17.3323 46.9529V40.3689C17.3323 39.8636 17.6692 39.6846 18.0171 39.6846C18.5119 39.6846 18.7335 39.7899 19.0809 40.411L20.3769 42.7708L21.6723 40.411C22.0202 39.7899 22.2519 39.6846 22.7472 39.6846C23.0946 39.6846 23.4315 39.8636 23.4315 40.3689V46.9529C23.4315 47.2377 23.0841 47.3851 22.7472 47.3851C22.3993 47.3851 22.0623 47.2377 22.0623 46.9529V42.4234L20.8296 44.6147Z" fill="#2B58BC"/>
<path d="M27.2442 42.9919H28.8455C29.1192 42.9919 29.2771 43.2555 29.2771 43.5398C29.2771 43.782 29.1403 44.0667 28.8455 44.0667H27.2442V46.1839H30.2252C30.4994 46.1839 30.6573 46.4681 30.6573 46.795C30.6573 47.0792 30.5204 47.385 30.2252 47.385H26.4752C26.1698 47.385 25.8746 47.2372 25.8746 46.9529V40.1162C25.8746 39.8319 26.1694 39.6841 26.4752 39.6841H30.2252C30.5204 39.6841 30.6573 39.9899 30.6573 40.2741C30.6573 40.601 30.4994 40.8853 30.2252 40.8853H27.2442V42.9919Z" fill="#2B58BC"/>
<path d="M36.2717 46.9529L34.0067 42.7181V46.9529C34.0067 47.2376 33.6593 47.385 33.3219 47.385C32.9745 47.385 32.6371 47.2376 32.6371 46.9529V40.1162C32.6371 39.8214 32.9745 39.6845 33.3219 39.6845C33.8172 39.6845 34.0172 39.7898 34.3441 40.411L36.377 44.3404V40.1057C36.377 39.8109 36.7139 39.6841 37.0618 39.6841C37.3987 39.6841 37.7462 39.8104 37.7462 40.1057V46.9529C37.7462 47.2372 37.3987 47.385 37.0618 47.385C36.735 47.385 36.4507 47.2797 36.2717 46.9529Z" fill="#2B58BC"/>
<path d="M43.8454 40.1057C43.8454 39.8109 44.1823 39.6846 44.5298 39.6846C44.8671 39.6846 45.2146 39.8109 45.2146 40.1057V45.0358C45.2146 46.795 44.0981 47.4482 42.6864 47.4482C41.2641 47.4482 40.1581 46.795 40.1581 45.0358V40.1057C40.1581 39.8109 40.4951 39.6846 40.843 39.6846C41.1799 39.6846 41.5273 39.8109 41.5273 40.1057V45.0358C41.5273 45.8575 41.9594 46.2475 42.6864 46.2475C43.4133 46.2475 43.845 45.8575 43.845 45.0358V40.1057H43.8454Z" fill="#2B58BC"/>
<path d="M46.5535 49.4702H41.5461C41.0544 49.4702 40.6562 49.8685 40.6562 50.3596C40.6562 50.8513 41.0544 51.2491 41.5461 51.2491H46.5535C47.0452 51.2491 47.443 50.8513 47.443 50.3596C47.443 49.8685 47.0452 49.4702 46.5535 49.4702Z" fill="#2B58BC"/>
<path d="M37.407 49.4702H17.1405C16.6493 49.4702 16.251 49.8685 16.251 50.3596C16.251 50.8513 16.6493 51.2491 17.1405 51.2491H37.407C37.8986 51.2491 38.2964 50.8513 38.2964 50.3596C38.2964 49.8685 37.8986 49.4702 37.407 49.4702Z" fill="#2B58BC"/>
<path d="M46.5536 35.8877H17.1405C16.6493 35.8877 16.251 36.2859 16.251 36.7771C16.251 37.2683 16.6493 37.6666 17.1405 37.6666H46.5536C47.0452 37.6666 47.443 37.2683 47.443 36.7771C47.443 36.2859 47.0452 35.8877 46.5536 35.8877Z" fill="#2B58BC"/>
<path d="M46.0587 24.8587H45.1954C44.8621 18.7297 40.382 13.6861 34.5185 12.4922L34.6902 10.8511C34.7465 10.3155 34.5716 9.77905 34.2114 9.37942C33.8511 8.97934 33.3357 8.75 32.7973 8.75H30.8972C30.3584 8.75 29.8434 8.9798 29.4827 9.37942C29.1224 9.77951 28.948 10.316 29.0043 10.8511L29.176 12.4922C23.3125 13.6861 18.8324 18.7292 18.4991 24.8582H17.6358C16.8722 24.8582 16.251 25.4794 16.251 26.2429V28.0786C16.251 28.8421 16.8722 29.4633 17.6358 29.4633H46.0583C46.8218 29.4633 47.443 28.8421 47.443 28.0786V26.2429C47.443 25.4799 46.8223 24.8587 46.0587 24.8587ZM30.8047 10.5701C30.8294 10.5431 30.8601 10.5293 30.8972 10.5293H32.7973C32.834 10.5293 32.8651 10.5431 32.8898 10.5701C32.9145 10.5975 32.925 10.63 32.9209 10.6662L32.7548 12.2555C32.4549 12.2354 32.1523 12.224 31.8475 12.224C31.5421 12.224 31.24 12.2354 30.9402 12.2555L30.7736 10.6662C30.7699 10.63 30.7804 10.5975 30.8047 10.5701ZM45.6641 27.6844H18.0304V26.6375H21.779C22.2706 26.6375 22.6689 26.2393 22.6689 25.7481C22.6689 25.2569 22.2706 24.8587 21.779 24.8587H20.2816C20.6616 18.8089 25.7034 14.0033 31.847 14.0033C37.9911 14.0033 43.0329 18.8089 43.4128 24.8587H25.9181C25.4264 24.8587 25.0286 25.2569 25.0286 25.7481C25.0286 26.2393 25.4264 26.6375 25.9181 26.6375H45.6641V27.6844Z" fill="#2B58BC"/>
<path d="M52.9082 0H10.7863C9.5375 0 8.52126 1.01623 8.52126 2.26501V3.87176H7.69134C6.16424 3.87176 4.92188 5.11458 4.92188 6.64168C4.92188 8.16878 6.16424 9.4116 7.69134 9.4116H8.52126V13.2152H7.69134C6.16424 13.2152 4.92188 14.4575 4.92188 15.9851C4.92188 17.5122 6.16424 18.7545 7.69134 18.7545H8.52126V22.5585H7.69134C6.16424 22.5585 4.92188 23.8009 4.92188 25.3285C4.92188 26.8556 6.16424 28.0979 7.69134 28.0979H8.52126V31.9019H7.69134C6.16424 31.9019 4.92188 33.1443 4.92188 34.6714C4.92188 36.199 6.16424 37.4413 7.69134 37.4413H8.52126V41.2453H7.69134C6.16424 41.2453 4.92188 42.4877 4.92188 44.0148C4.92188 45.5424 6.16424 46.7847 7.69134 46.7847H8.52126V50.5887H7.69134C6.16424 50.5887 4.92188 51.8311 4.92188 53.3582C4.92188 54.8853 6.16424 56.1281 7.69134 56.1281H8.52126V57.7349C8.52126 58.9837 9.5375 59.9999 10.7863 59.9999H52.9082C54.157 59.9999 55.1737 58.9837 55.1737 57.7349V2.26501C55.1737 1.01623 54.157 0 52.9082 0V0ZM8.52081 7.63274H7.69134C7.14523 7.63274 6.70074 7.18825 6.70074 6.64168C6.70074 6.09557 7.14523 5.65108 7.69134 5.65108H8.52081V7.63274ZM8.52081 16.9757H7.69134C7.14523 16.9757 6.70074 16.5312 6.70074 15.9851C6.70074 15.4385 7.14523 14.9945 7.69134 14.9945H8.52081V16.9757ZM8.52081 26.3191H7.69134C7.14523 26.3191 6.70074 25.8746 6.70074 25.3285C6.70074 24.7819 7.14523 24.3374 7.69134 24.3374H8.52081V26.3191ZM8.52081 35.6625H7.69134C7.14523 35.6625 6.70074 35.218 6.70074 34.6714C6.70074 34.1253 7.14523 33.6808 7.69134 33.6808H8.52081V35.6625ZM8.52081 45.0054H7.69134C7.14523 45.0054 6.70074 44.5614 6.70074 44.0148C6.70074 43.4687 7.14523 43.0242 7.69134 43.0242H8.52081V45.0054ZM8.52081 54.3488H7.69134C7.14523 54.3488 6.70074 53.9043 6.70074 53.3582C6.70074 52.8116 7.14523 52.3676 7.69134 52.3676H8.52081V54.3488ZM53.3944 57.7344C53.3944 58.0027 53.1765 58.221 52.9082 58.221H10.7863C10.518 58.221 10.3001 58.0027 10.3001 57.7344V2.26501C10.3001 1.99722 10.518 1.77887 10.7863 1.77887H52.9082C53.1765 1.77887 53.3944 1.99722 53.3944 2.26501V57.7344Z" fill="#2B58BC"/>
</g>
<defs>
<clipPath id="clip0_798_6673">
<rect width="59.9999" height="60" fill="white"/>
</clipPath>
</defs>
</svg>
