<svg width="18" height="18" viewBox="0 0 18 18" fill="none" xmlns="http://www.w3.org/2000/svg">
<g clip-path="url(#clip0_798_5025)">
<path d="M0.179858 5.66318L8.58536 14.0681C8.70545 14.1883 8.84361 14.2485 8.99991 14.2485C9.1562 14.2485 9.29461 14.1883 9.41477 14.0681L17.8196 5.66317C17.94 5.54277 18 5.40461 18 5.24825C18 5.09196 17.9398 4.95361 17.8196 4.83345L16.918 3.9319C16.7977 3.81168 16.6594 3.7516 16.5031 3.7516C16.3468 3.7516 16.2085 3.81168 16.0882 3.9319L8.99991 11.0201L1.91132 3.93146C1.79116 3.81124 1.65275 3.75154 1.49671 3.75154C1.34017 3.75154 1.20182 3.81162 1.08166 3.93146L0.179921 4.83339C0.059764 4.95355 6.40494e-05 5.09196 6.4063e-05 5.24819C1.13419e-06 5.40461 0.0597012 5.54296 0.179858 5.66318Z" fill="black"/>
</g>
<defs>
<clipPath id="clip0_798_5025">
<rect width="18" height="18" fill="white" transform="translate(18 18) rotate(180)"/>
</clipPath>
</defs>
</svg>
